# xmcd
#
# Track frame offsets:
#	182
#	16270
#	30410
#	49145
#	64282
#	84010
#	100470
#	115690
#	129992
#	150230
#
# Disc length: 2265 seconds
#
# Revision: 6
# Processed by: cddbd v1.5.2PL0 Copyright (c) Steve Scherf et al.
# Submitted via: EasyCDDAExtractor 15.3.0.1
#
DISCID=6b08d70a
DTITLE=Rocio Durcal - Hay Amores Y Amores
DYEAR=1995
DGENRE=Latin
TTITLE0=Como Han Pasado Los Años
TTITLE1=Corazon Sufrido
TTITLE2=Que De Mi
TTITLE3=Vestida De Blanco
TTITLE4=De Menos A Mas
TTITLE5=De Que Estoy Hecha
TTITLE6=Hay Amores Y Amores
TTITLE7=Culpa De Un Palomo
TTITLE8=Frases Hechas
TTITLE9=La Tercera Es La Vencida
EXTD=
EXTT0=
EXTT1=
EXTT2=
EXTT3=
EXTT4=
EXTT5=
EXTT6=
EXTT7=
EXTT8=
EXTT9=
PLAYORDER=
